<svg xmlns="http://www.w3.org/2000/svg" width="32" height="32" viewBox="0 0 32 32">
  <defs>
    <radialGradient id="base" cx="45%" cy="40%" r="55%">
      <stop offset="0%" stop-color="#f0c45a"/>
      <stop offset="60%" stop-color="#d4a03a"/>
      <stop offset="100%" stop-color="#b8832e"/>
    </radialGradient>
    <radialGradient id="glow" cx="40%" cy="35%" r="50%">
      <stop offset="0%" stop-color="white" stop-opacity="0.25"/>
      <stop offset="100%" stop-color="white" stop-opacity="0"/>
    </radialGradient>
  </defs>
  <!-- Shadow -->
  <ellipse cx="16" cy="27" rx="10" ry="3" fill="black" opacity="0.12"/>
  <!-- Pupusa body -->
  <ellipse cx="16" cy="16" rx="14" ry="13" fill="url(#base)"/>
  <!-- Outer crust ring -->
  <ellipse cx="16" cy="16" rx="14" ry="13" fill="none" stroke="#a5711f" stroke-width="0.8" opacity="0.6"/>
  <!-- Crimped edge marks -->
  <path d="M5.5 11 Q6.5 12.5 5 14" stroke="#a5711f" stroke-width="0.6" fill="none" opacity="0.5"/>
  <path d="M7 7.5 Q8.5 8.5 7.5 10" stroke="#a5711f" stroke-width="0.6" fill="none" opacity="0.5"/>
  <path d="M12 4.5 Q13 5.8 11.5 6.5" stroke="#a5711f" stroke-width="0.6" fill="none" opacity="0.5"/>
  <path d="M20 4.5 Q19 5.8 20.5 6.5" stroke="#a5711f" stroke-width="0.6" fill="none" opacity="0.5"/>
  <path d="M25 7.5 Q23.5 8.5 24.5 10" stroke="#a5711f" stroke-width="0.6" fill="none" opacity="0.5"/>
  <path d="M26.5 11 Q25.5 12.5 27 14" stroke="#a5711f" stroke-width="0.6" fill="none" opacity="0.5"/>
  <path d="M27 17 Q25.8 18.5 27 20" stroke="#a5711f" stroke-width="0.6" fill="none" opacity="0.5"/>
  <path d="M24 23 Q23 21.5 24.5 21" stroke="#a5711f" stroke-width="0.6" fill="none" opacity="0.5"/>
  <path d="M8 23 Q9 21.5 7.5 21" stroke="#a5711f" stroke-width="0.6" fill="none" opacity="0.5"/>
  <path d="M5 17 Q6.2 18.5 5 20" stroke="#a5711f" stroke-width="0.6" fill="none" opacity="0.5"/>
  <!-- Griddle char marks -->
  <ellipse cx="11" cy="12" rx="3" ry="2.2" fill="#a06820" opacity="0.3" transform="rotate(-15 11 12)"/>
  <ellipse cx="20" cy="18" rx="3.5" ry="2" fill="#a06820" opacity="0.28" transform="rotate(20 20 18)"/>
  <ellipse cx="15" cy="21" rx="2.5" ry="1.8" fill="#a06820" opacity="0.22" transform="rotate(-10 15 21)"/>
  <ellipse cx="21" cy="11" rx="2" ry="1.5" fill="#a06820" opacity="0.25" transform="rotate(5 21 11)"/>
  <circle cx="9" cy="18" r="1.5" fill="#a06820" opacity="0.2"/>
  <!-- Filling seam line across middle -->
  <path d="M6 16 Q10 14.5 16 15 Q22 15.5 26 16" stroke="#b8832e" stroke-width="0.7" fill="none" opacity="0.4"/>
  <!-- Cheese peeking at seam -->
  <ellipse cx="12" cy="15.2" rx="2" ry="0.9" fill="#f5e6b8" opacity="0.55"/>
  <ellipse cx="19" cy="15.6" rx="1.8" ry="0.8" fill="#f5e6b8" opacity="0.5"/>
  <!-- Top highlight -->
  <ellipse cx="13" cy="11" rx="6" ry="4" fill="url(#glow)"/>
</svg>
